<?xml version="1.0" encoding="utf-8"?>
<!-- Generator: Adobe Illustrator 26.2.1, SVG Export Plug-In . SVG Version: 6.00 Build 0)  -->
<svg  version="1.1" id="레이어_1" xmlns="http://www.w3.org/2000/svg" xmlns:xlink="http://www.w3.org/1999/xlink" x="0px"
	 y="0px" viewBox="0 0 444.9 86.1" style="enable-background:new 0 0 444.9 86.1;" xml:space="preserve">
<g>
	<polygon fill="#ffffff" points="0,0 0,13.7 0,24.2 0,37.9 0,48.4 0,62.1 0,86.1 14.2,86.1 14.2,62.1 61.9,62.1 61.9,48.4 14.2,48.4 14.2,37.9 
		61.9,37.9 61.9,24.2 14.2,24.2 14.2,13.7 61.9,13.7 61.9,0 0,0 	"/>
	<path fill="#ffffff" d="M108.7,0H72v72.7v13.5h36.7h26.9V72.7h-26.9V0z M95.4,72.7h-9.2v-59h9.2V72.7z"/>
	<path fill="#ffffff" d="M215.3,86.1h99.2L264.6,0L215.3,86.1z M289.8,72.1h-49.7L264.8,29L289.8,72.1z"/>
	<polygon fill="#ffffff" points="301.9,14.7 331.5,14.7 331.5,86.1 346.8,86.1 346.8,14.7 376.4,14.7 376.4,0 301.9,0 	"/>
	<polygon fill="#ffffff" points="444.9,14.3 444.9,0 396.7,0 381.5,0 381.5,14.3 381.5,24 381.5,38.2 381.5,47.9 381.5,62.2 381.5,71.9 381.5,85.6 
		381.5,86.1 444.9,86.1 444.9,71.9 396.7,71.9 396.7,62.2 444.9,62.2 444.9,47.9 396.7,47.9 396.7,38.2 444.9,38.2 444.9,24 
		396.7,24 396.7,14.3 	"/>
	<path fill="#ffffff" d="M155.2,0h-14v14.5v36.2c0,19.6,16.1,35.5,35.9,35.5s35.9-15.9,35.9-35.5V14.5V0h-14H155.2z M197.8,31.2v21
		c0,11.4-9.3,20.6-20.8,20.6s-20.8-9.2-20.8-20.6v-21V14.8h8.2h25.4h8.2V31.2z"/>
	<path fill="#ffffff" d="M177,62.6c6.1,0,11.1-4.9,11.1-10.9h-22.1C165.9,57.7,170.9,62.6,177,62.6z"/>
</g>
</svg>
